<svg id="Capa_1" data-name="Capa 1" xmlns="http://www.w3.org/2000/svg" viewBox="0 0 117.48 84.38"><defs><style>.cls-1{fill:#b4b4b4;}.cls-2{fill:none;stroke:#1d1d1b;stroke-miterlimit:4.8;stroke-width:2px;}</style></defs><path class="cls-1" d="M167.55,331.38v-6.44h.85v5.68h3.18v.76Z" transform="translate(-69.07 -298.51)"/><path class="cls-1" d="M172.2,329.05a2.39,2.39,0,0,1,.72-1.92,2.14,2.14,0,0,1,1.46-.52,2.1,2.1,0,0,1,1.58.63,2.42,2.42,0,0,1,.61,1.74,3.09,3.09,0,0,1-.27,1.42,1.9,1.9,0,0,1-.79.8,2.29,2.29,0,0,1-1.13.29,2.09,2.09,0,0,1-1.58-.63A2.52,2.52,0,0,1,172.2,329.05Zm.81,0a2,2,0,0,0,.39,1.34,1.25,1.25,0,0,0,1,.45,1.23,1.23,0,0,0,1-.45,2.05,2.05,0,0,0,.4-1.37,1.93,1.93,0,0,0-.4-1.31,1.29,1.29,0,0,0-2,0A2,2,0,0,0,173,329.05Z" transform="translate(-69.07 -298.51)"/><path class="cls-1" d="M177.2,329.05a2.39,2.39,0,0,1,.72-1.92,2.15,2.15,0,0,1,1.47-.52,2.08,2.08,0,0,1,1.57.63,2.38,2.38,0,0,1,.61,1.74,3.09,3.09,0,0,1-.27,1.42,1.94,1.94,0,0,1-.78.8,2.32,2.32,0,0,1-1.13.29,2.09,2.09,0,0,1-1.58-.63A2.48,2.48,0,0,1,177.2,329.05Zm.81,0a1.93,1.93,0,0,0,.4,1.34,1.23,1.23,0,0,0,1,.45,1.25,1.25,0,0,0,1-.45,2.05,2.05,0,0,0,.39-1.37,1.93,1.93,0,0,0-.39-1.31,1.26,1.26,0,0,0-1-.45,1.23,1.23,0,0,0-1,.45A1.92,1.92,0,0,0,178,329.05Z" transform="translate(-69.07 -298.51)"/><path class="cls-1" d="M182.5,333.17v-6.46h.72v.61a1.7,1.7,0,0,1,.58-.53,1.55,1.55,0,0,1,.78-.18,1.8,1.8,0,0,1,1,.31,1.92,1.92,0,0,1,.69.86,3.43,3.43,0,0,1,0,2.52,1.92,1.92,0,0,1-.75.88,2,2,0,0,1-1,.31,1.49,1.49,0,0,1-.71-.17,1.66,1.66,0,0,1-.52-.42v2.27Zm.72-4.1a2.08,2.08,0,0,0,.36,1.34,1.16,1.16,0,0,0,.89.43,1.14,1.14,0,0,0,.9-.45,2.13,2.13,0,0,0,.37-1.38,2.1,2.1,0,0,0-.36-1.34,1.09,1.09,0,0,0-1.77,0A2.11,2.11,0,0,0,183.22,329.07Z" transform="translate(-69.07 -298.51)"/><path class="cls-1" d="M156.84,378a3.52,3.52,0,0,1,.86-2.51,3,3,0,0,1,2.23-.91,3.06,3.06,0,0,1,1.61.43,2.79,2.79,0,0,1,1.09,1.19,4.17,4.17,0,0,1,0,3.48,2.7,2.7,0,0,1-1.12,1.17,3.19,3.19,0,0,1-1.57.4,3,3,0,0,1-1.62-.44,2.81,2.81,0,0,1-1.09-1.2A3.72,3.72,0,0,1,156.84,378Zm.88,0a2.58,2.58,0,0,0,.63,1.84,2.18,2.18,0,0,0,3.15,0,2.71,2.71,0,0,0,.62-1.92,3.25,3.25,0,0,0-.26-1.37,2.05,2.05,0,0,0-1.93-1.23,2.17,2.17,0,0,0-1.56.62A2.77,2.77,0,0,0,157.72,378Z" transform="translate(-69.07 -298.51)"/><path class="cls-1" d="M164,382.89v-6.46h.72V377a1.74,1.74,0,0,1,.58-.54,1.67,1.67,0,0,1,.78-.17,1.87,1.87,0,0,1,1,.3,2,2,0,0,1,.69.87,3.43,3.43,0,0,1,0,2.52,2,2,0,0,1-.75.88,2,2,0,0,1-1,.3,1.49,1.49,0,0,1-.71-.16,1.66,1.66,0,0,1-.52-.42v2.27Zm.72-4.1a2,2,0,0,0,.36,1.33,1.14,1.14,0,0,0,1.79,0,2.13,2.13,0,0,0,.37-1.38,2.1,2.1,0,0,0-.36-1.34,1.09,1.09,0,0,0-1.77,0A2.09,2.09,0,0,0,164.72,378.79Z" transform="translate(-69.07 -298.51)"/><path class="cls-1" d="M172.2,379.6l.82.1a2,2,0,0,1-.72,1.11,2.16,2.16,0,0,1-1.33.39,2.14,2.14,0,0,1-1.63-.63,2.45,2.45,0,0,1-.6-1.76,2.55,2.55,0,0,1,.61-1.83,2,2,0,0,1,1.57-.65,2,2,0,0,1,1.53.63,2.54,2.54,0,0,1,.59,1.8V379h-3.48a1.78,1.78,0,0,0,.44,1.18,1.28,1.28,0,0,0,1,.4,1.2,1.2,0,0,0,.74-.22A1.54,1.54,0,0,0,172.2,379.6Zm-2.6-1.28h2.61a1.59,1.59,0,0,0-.3-.89,1.22,1.22,0,0,0-1-.45,1.28,1.28,0,0,0-.92.36A1.5,1.5,0,0,0,169.6,378.32Z" transform="translate(-69.07 -298.51)"/><path class="cls-1" d="M174,381.1v-4.67h.71v.67a1.68,1.68,0,0,1,1.49-.77,1.92,1.92,0,0,1,.77.15,1.12,1.12,0,0,1,.53.4,1.46,1.46,0,0,1,.25.58,4.58,4.58,0,0,1,0,.77v2.87H177v-2.84a2.17,2.17,0,0,0-.09-.72.78.78,0,0,0-.33-.39A1.07,1.07,0,0,0,176,377a1.3,1.3,0,0,0-.87.32,1.57,1.57,0,0,0-.37,1.22v2.55Z" transform="translate(-69.07 -298.51)"/><path class="cls-2" d="M-230.14,342.16" transform="translate(-69.07 -298.51)"/><path class="cls-1" d="M124,305l2.48-6.44h.91L130,305h-1l-.75-1.95h-2.7l-.7,1.95Zm1.86-2.64h2.18l-.67-1.79c-.2-.54-.36-1-.45-1.33a9.46,9.46,0,0,1-.35,1.23Z" transform="translate(-69.07 -298.51)"/><path class="cls-1" d="M130.74,305v-6.44h2.85a4,4,0,0,1,1.31.17,1.44,1.44,0,0,1,.72.62,1.79,1.79,0,0,1,.27,1,1.58,1.58,0,0,1-.45,1.15,2.16,2.16,0,0,1-1.37.6,2.16,2.16,0,0,1,.51.32,4.46,4.46,0,0,1,.71.86l1.12,1.75h-1.07l-.85-1.34c-.25-.38-.46-.68-.62-.88a2,2,0,0,0-.43-.44,1.65,1.65,0,0,0-.39-.17,2.59,2.59,0,0,0-.47,0h-1V305Zm.85-3.6h1.83a2.74,2.74,0,0,0,.91-.12,1,1,0,0,0,.51-.38,1.09,1.09,0,0,0,.17-.58.94.94,0,0,0-.33-.75,1.57,1.57,0,0,0-1.05-.3h-2Z" transform="translate(-69.07 -298.51)"/><path class="cls-1" d="M69.07,331.33l2.47-6.44h.92l2.64,6.44h-1l-.75-1.95h-2.7l-.7,1.95Zm1.86-2.65h2.18l-.67-1.78c-.2-.54-.36-1-.46-1.34a7.47,7.47,0,0,1-.34,1.23Z" transform="translate(-69.07 -298.51)"/><path class="cls-1" d="M77.81,331.33v-6.44h.85v2.64H82v-2.64h.85v6.44H82v-3H78.66v3Z" transform="translate(-69.07 -298.51)"/><path class="cls-1" d="M84.3,331.33v-6.44h2.85a3.7,3.7,0,0,1,1.31.17,1.47,1.47,0,0,1,.72.61,1.84,1.84,0,0,1,.27,1A1.61,1.61,0,0,1,89,327.8a2.27,2.27,0,0,1-1.37.6,2.14,2.14,0,0,1,.52.32,4.15,4.15,0,0,1,.7.86L90,331.33H88.9L88.05,330c-.25-.39-.45-.68-.61-.89a2.15,2.15,0,0,0-.44-.43,1.13,1.13,0,0,0-.39-.17,2.51,2.51,0,0,0-.47,0h-1v2.86Zm.85-3.6H87a2.81,2.81,0,0,0,.92-.12,1,1,0,0,0,.5-.39,1.06,1.06,0,0,0,.17-.58,1,1,0,0,0-.33-.75,1.59,1.59,0,0,0-1-.29h-2Z" transform="translate(-69.07 -298.51)"/><path class="cls-1" d="M79,381.1l2.48-6.44h.92L85,381.1H84l-.75-2H80.6l-.71,2Zm1.86-2.65H83l-.68-1.78c-.2-.54-.35-1-.45-1.34a8.64,8.64,0,0,1-.35,1.23Z" transform="translate(-69.07 -298.51)"/><path class="cls-1" d="M85.69,381.1v-6.44h2.22a5.53,5.53,0,0,1,1.15.09,2.13,2.13,0,0,1,.94.46,2.64,2.64,0,0,1,.77,1.1,4.54,4.54,0,0,1,.25,1.53,4.6,4.6,0,0,1-.17,1.3,3.29,3.29,0,0,1-.44.94,2.54,2.54,0,0,1-.59.59,2.35,2.35,0,0,1-.77.32,4.52,4.52,0,0,1-1,.11Zm.86-.76h1.37a3.27,3.27,0,0,0,1-.12,1.55,1.55,0,0,0,.58-.33,2.11,2.11,0,0,0,.47-.82,4,4,0,0,0,.17-1.24,3,3,0,0,0-.33-1.55,1.61,1.61,0,0,0-.81-.73,3.26,3.26,0,0,0-1.1-.13H86.55Z" transform="translate(-69.07 -298.51)"/><path class="cls-1" d="M91.9,379l.81-.07a1.64,1.64,0,0,0,.26.79,1.4,1.4,0,0,0,.65.5,2.4,2.4,0,0,0,1,.19,2.32,2.32,0,0,0,.86-.14,1.27,1.27,0,0,0,.56-.4.93.93,0,0,0,.18-.55.83.83,0,0,0-.18-.53,1.25,1.25,0,0,0-.58-.38,10.13,10.13,0,0,0-1.14-.31,6,6,0,0,1-1.25-.41,1.68,1.68,0,0,1-.68-.6,1.37,1.37,0,0,1-.23-.8,1.6,1.6,0,0,1,.28-.91,1.66,1.66,0,0,1,.8-.64,3,3,0,0,1,1.19-.22,3.15,3.15,0,0,1,1.26.23,1.83,1.83,0,0,1,.84.68,2,2,0,0,1,.32,1l-.82.06a1.29,1.29,0,0,0-.45-.92,1.7,1.7,0,0,0-1.12-.31,1.83,1.83,0,0,0-1.13.28.87.87,0,0,0-.35.69.72.72,0,0,0,.25.57,3.39,3.39,0,0,0,1.29.46,7.7,7.7,0,0,1,1.42.41,1.93,1.93,0,0,1,.83.65,1.61,1.61,0,0,1,.27.92,1.8,1.8,0,0,1-.29,1,2,2,0,0,1-.85.71,3.08,3.08,0,0,1-1.24.25,3.75,3.75,0,0,1-1.47-.26,2,2,0,0,1-.92-.76A2.12,2.12,0,0,1,91.9,379Z" transform="translate(-69.07 -298.51)"/><path class="cls-1" d="M98.21,381.1v-6.44h2.85a3.66,3.66,0,0,1,1.31.17,1.47,1.47,0,0,1,.72.61,1.84,1.84,0,0,1,.27,1,1.64,1.64,0,0,1-.44,1.16,2.33,2.33,0,0,1-1.38.6,2.14,2.14,0,0,1,.52.32,4.52,4.52,0,0,1,.71.86l1.12,1.75h-1.08l-.85-1.34c-.25-.39-.45-.68-.61-.89a1.93,1.93,0,0,0-.44-.43,1.13,1.13,0,0,0-.39-.17,2.51,2.51,0,0,0-.47,0h-1v2.86Zm.85-3.6h1.83a2.81,2.81,0,0,0,.92-.12,1,1,0,0,0,.5-.39,1.06,1.06,0,0,0,.17-.58,1,1,0,0,0-.33-.75,1.59,1.59,0,0,0-1.05-.29h-2Z" transform="translate(-69.07 -298.51)"/></svg>