<svg id="Capa_1" data-name="Capa 1" xmlns="http://www.w3.org/2000/svg" viewBox="0 0 99.98 77.8"><defs><style>.cls-1{fill:none;stroke:#1d1d1b;stroke-miterlimit:4.8;stroke-width:2px;}.cls-2{fill:#b4b4b4;}</style></defs><path class="cls-1" d="M-230.14,342.16" transform="translate(-75.52 -303.79)"/><path class="cls-2" d="M100.67,376.67a3.52,3.52,0,0,1,.86-2.51,3,3,0,0,1,2.22-.91,3.13,3.13,0,0,1,1.61.43,2.73,2.73,0,0,1,1.09,1.19,3.86,3.86,0,0,1,.38,1.73,3.7,3.7,0,0,1-.4,1.75,2.59,2.59,0,0,1-1.12,1.17,3.12,3.12,0,0,1-1.56.4,3.08,3.08,0,0,1-1.63-.44,2.79,2.79,0,0,1-1.08-1.2A3.59,3.59,0,0,1,100.67,376.67Zm.88,0a2.62,2.62,0,0,0,.62,1.83,2.19,2.19,0,0,0,3.16,0,2.75,2.75,0,0,0,.62-1.92,3.25,3.25,0,0,0-.27-1.37,2,2,0,0,0-.77-.91,2.16,2.16,0,0,0-1.15-.32,2.14,2.14,0,0,0-1.56.62A2.76,2.76,0,0,0,101.55,376.69Z" transform="translate(-75.52 -303.79)"/><path class="cls-2" d="M108,379.81v-4.05h-.7v-.62h.7v-.49a2.05,2.05,0,0,1,.08-.7,1,1,0,0,1,.4-.5,1.43,1.43,0,0,1,.81-.19,3.4,3.4,0,0,1,.74.08l-.12.69a2.69,2.69,0,0,0-.47,0,.66.66,0,0,0-.51.16.81.81,0,0,0-.15.57v.43h.91v.62h-.91v4.05Z" transform="translate(-75.52 -303.79)"/><path class="cls-2" d="M110.35,379.81v-4.05h-.69v-.62h.69v-.49a2,2,0,0,1,.09-.7,1,1,0,0,1,.4-.5,1.43,1.43,0,0,1,.81-.19,3.25,3.25,0,0,1,.73.08l-.11.69a2.69,2.69,0,0,0-.47,0,.66.66,0,0,0-.51.16.81.81,0,0,0-.15.57v.43h.91v.62h-.91v4.05Z" transform="translate(-75.52 -303.79)"/><path class="cls-2" d="M75.52,346.19l.81-.07a1.68,1.68,0,0,0,.26.8,1.55,1.55,0,0,0,.65.5,2.57,2.57,0,0,0,1,.19,2.31,2.31,0,0,0,.86-.15,1.25,1.25,0,0,0,.56-.39,1,1,0,0,0,.18-.56.85.85,0,0,0-.18-.53,1.39,1.39,0,0,0-.58-.38c-.17-.06-.55-.17-1.15-.31a6.17,6.17,0,0,1-1.24-.4,1.71,1.71,0,0,1-.69-.6,1.48,1.48,0,0,1-.22-.8,1.7,1.7,0,0,1,.27-.92,1.8,1.8,0,0,1,.81-.64,3,3,0,0,1,1.18-.22,3.34,3.34,0,0,1,1.27.23,1.9,1.9,0,0,1,.84.68,2,2,0,0,1,.32,1l-.82.06a1.34,1.34,0,0,0-.45-.93,1.78,1.78,0,0,0-1.12-.31,1.8,1.8,0,0,0-1.13.29.85.85,0,0,0-.35.68.72.72,0,0,0,.25.57,3.39,3.39,0,0,0,1.28.46,8.5,8.5,0,0,1,1.43.41,1.88,1.88,0,0,1,.83.66,1.57,1.57,0,0,1,.27.91,1.71,1.71,0,0,1-.3,1,1.85,1.85,0,0,1-.84.71,2.92,2.92,0,0,1-1.24.25,3.73,3.73,0,0,1-1.47-.25,2.13,2.13,0,0,1-.93-.77A2.2,2.2,0,0,1,75.52,346.19Z" transform="translate(-75.52 -303.79)"/><path class="cls-2" d="M83.44,347.56l.11.69a2.68,2.68,0,0,1-.59.07,1.37,1.37,0,0,1-.67-.13.79.79,0,0,1-.34-.36,3,3,0,0,1-.09-.93v-2.69h-.58v-.61h.58v-1.16l.78-.47v1.63h.8v.61h-.8v2.73a1.28,1.28,0,0,0,0,.44.31.31,0,0,0,.13.15.54.54,0,0,0,.27.06Z" transform="translate(-75.52 -303.79)"/><path class="cls-2" d="M87.41,346.76l.82.1a2,2,0,0,1-.72,1.11,2.42,2.42,0,0,1-3-.23A2.46,2.46,0,0,1,84,346a2.55,2.55,0,0,1,.61-1.83,2,2,0,0,1,1.57-.65,2,2,0,0,1,1.53.64,2.54,2.54,0,0,1,.59,1.79v.21H84.77a1.81,1.81,0,0,0,.43,1.18,1.31,1.31,0,0,0,1,.41,1.21,1.21,0,0,0,.74-.23A1.49,1.49,0,0,0,87.41,346.76Zm-2.6-1.28h2.61a1.63,1.63,0,0,0-.3-.88,1.2,1.2,0,0,0-1-.46,1.24,1.24,0,0,0-.92.37A1.42,1.42,0,0,0,84.81,345.48Z" transform="translate(-75.52 -303.79)"/><path class="cls-2" d="M89.21,348.26V343.6h.71v.7a1.77,1.77,0,0,1,.51-.65.83.83,0,0,1,.5-.16,1.58,1.58,0,0,1,.82.26l-.28.73a1.14,1.14,0,0,0-.58-.17.75.75,0,0,0-.46.15.87.87,0,0,0-.3.44,3,3,0,0,0-.13.92v2.44Z" transform="translate(-75.52 -303.79)"/><path class="cls-2" d="M95.41,346.76l.82.1a2,2,0,0,1-.72,1.11,2.1,2.1,0,0,1-1.33.4,2.14,2.14,0,0,1-1.63-.63A2.46,2.46,0,0,1,92,346a2.55,2.55,0,0,1,.61-1.83,2.06,2.06,0,0,1,1.57-.65,2,2,0,0,1,1.53.64,2.5,2.5,0,0,1,.59,1.79v.21H92.77a1.81,1.81,0,0,0,.43,1.18,1.33,1.33,0,0,0,1,.41,1.21,1.21,0,0,0,.74-.23A1.49,1.49,0,0,0,95.41,346.76Zm-2.6-1.28h2.61a1.63,1.63,0,0,0-.3-.88,1.2,1.2,0,0,0-1-.46,1.25,1.25,0,0,0-.92.37A1.47,1.47,0,0,0,92.81,345.48Z" transform="translate(-75.52 -303.79)"/><path class="cls-2" d="M96.93,345.93a2.42,2.42,0,0,1,.72-1.92,2.15,2.15,0,0,1,1.47-.52,2.09,2.09,0,0,1,1.57.63,2.38,2.38,0,0,1,.61,1.74,3.09,3.09,0,0,1-.27,1.42,1.85,1.85,0,0,1-.79.8,2.28,2.28,0,0,1-1.12.29,2.09,2.09,0,0,1-1.59-.63A2.52,2.52,0,0,1,96.93,345.93Zm.81,0a2,2,0,0,0,.39,1.34,1.3,1.3,0,0,0,2,0,2,2,0,0,0,.39-1.37,2,2,0,0,0-.4-1.31,1.31,1.31,0,0,0-2,0A2,2,0,0,0,97.74,345.93Z" transform="translate(-75.52 -303.79)"/><path class="cls-2" d="M96.11,316.53v-6.45h1.28l1.52,4.57c.15.42.25.74.31,1,.08-.23.19-.58.34-1l1.55-4.49h1.14v6.45h-.82v-5.4l-1.87,5.4h-.77L96.93,311v5.49Z" transform="translate(-75.52 -303.79)"/><path class="cls-2" d="M103.23,314.19a2.39,2.39,0,0,1,.73-1.92,2.19,2.19,0,0,1,1.46-.52,2.09,2.09,0,0,1,1.58.64,2.42,2.42,0,0,1,.61,1.74,3,3,0,0,1-.27,1.41,1.93,1.93,0,0,1-.79.81,2.28,2.28,0,0,1-1.13.28,2.09,2.09,0,0,1-1.58-.63A2.52,2.52,0,0,1,103.23,314.19Zm.82,0a2,2,0,0,0,.39,1.35,1.27,1.27,0,0,0,1,.44,1.23,1.23,0,0,0,1-.45,2,2,0,0,0,.39-1.36,2,2,0,0,0-.39-1.32,1.31,1.31,0,0,0-2,0A2,2,0,0,0,104.05,314.19Z" transform="translate(-75.52 -303.79)"/><path class="cls-2" d="M108.53,316.53v-4.67h.72v.66a1.67,1.67,0,0,1,1.48-.77,2,2,0,0,1,.78.16,1.29,1.29,0,0,1,.53.39,1.56,1.56,0,0,1,.24.59,4.22,4.22,0,0,1,0,.77v2.87h-.79v-2.84a2.09,2.09,0,0,0-.1-.72.81.81,0,0,0-.32-.39,1.11,1.11,0,0,0-.56-.14,1.32,1.32,0,0,0-.87.32,1.6,1.6,0,0,0-.36,1.22v2.55Z" transform="translate(-75.52 -303.79)"/><path class="cls-2" d="M113.25,314.19a2.42,2.42,0,0,1,.72-1.92,2.19,2.19,0,0,1,1.46-.52,2.07,2.07,0,0,1,1.58.64,2.42,2.42,0,0,1,.61,1.74,3,3,0,0,1-.27,1.41,1.93,1.93,0,0,1-.79.81,2.28,2.28,0,0,1-1.13.28,2.09,2.09,0,0,1-1.58-.63A2.52,2.52,0,0,1,113.25,314.19Zm.81,0a2,2,0,0,0,.39,1.35,1.27,1.27,0,0,0,1,.44,1.23,1.23,0,0,0,1-.45,2,2,0,0,0,.39-1.36,2,2,0,0,0-.39-1.32,1.31,1.31,0,0,0-2,0A2,2,0,0,0,114.06,314.19Z" transform="translate(-75.52 -303.79)"/><path class="cls-2" d="M152.42,310.24v-6.45h2.43a5,5,0,0,1,1,.07,1.86,1.86,0,0,1,.79.3,1.6,1.6,0,0,1,.52.62,2,2,0,0,1,.19.88,2,2,0,0,1-.52,1.39,2.51,2.51,0,0,1-1.89.57h-1.65v2.62Zm.85-3.38h1.66a1.81,1.81,0,0,0,1.18-.31,1.1,1.1,0,0,0,.34-.87,1.13,1.13,0,0,0-.2-.69,1,1,0,0,0-.54-.38,3.44,3.44,0,0,0-.79-.06h-1.65Z" transform="translate(-75.52 -303.79)"/><path class="cls-2" d="M158.32,304.7v-.91h.79v.91Zm0,5.54v-4.67h.79v4.67Z" transform="translate(-75.52 -303.79)"/><path class="cls-2" d="M160.32,310.24v-4.67H161v.66a1.68,1.68,0,0,1,1.48-.77,2,2,0,0,1,.78.16,1.29,1.29,0,0,1,.53.39,1.42,1.42,0,0,1,.24.59,4.22,4.22,0,0,1,.05.77v2.87h-.79V307.4a2.13,2.13,0,0,0-.09-.72.89.89,0,0,0-.33-.39,1.1,1.1,0,0,0-.55-.14,1.32,1.32,0,0,0-.88.32,1.6,1.6,0,0,0-.36,1.22v2.55Z" transform="translate(-75.52 -303.79)"/><path class="cls-2" d="M165.18,310.62l.77.12a.74.74,0,0,0,.26.52,1.39,1.39,0,0,0,.81.22,1.48,1.48,0,0,0,.85-.22,1.11,1.11,0,0,0,.4-.62,5.26,5.26,0,0,0,.06-1,1.66,1.66,0,0,1-1.29.61,1.74,1.74,0,0,1-1.49-.7,2.62,2.62,0,0,1-.53-1.66,3.15,3.15,0,0,1,.24-1.24,1.85,1.85,0,0,1,1.78-1.18,1.69,1.69,0,0,1,1.36.67v-.56h.73v4a3.81,3.81,0,0,1-.22,1.55,1.67,1.67,0,0,1-.7.72,2.52,2.52,0,0,1-1.19.26,2.27,2.27,0,0,1-1.35-.37A1.3,1.3,0,0,1,165.18,310.62Zm.65-2.8a2,2,0,0,0,.37,1.34,1.14,1.14,0,0,0,.91.42,1.16,1.16,0,0,0,.91-.42,1.93,1.93,0,0,0,.37-1.31,1.89,1.89,0,0,0-.38-1.3,1.16,1.16,0,0,0-.91-.43,1.14,1.14,0,0,0-.9.43A1.87,1.87,0,0,0,165.83,307.82Z" transform="translate(-75.52 -303.79)"/><path class="cls-2" d="M150.91,321v-6.45h2.43a4.85,4.85,0,0,1,1,.07,1.91,1.91,0,0,1,.8.3,1.51,1.51,0,0,1,.51.62,2,2,0,0,1,.2.88,2,2,0,0,1-.52,1.39,2.51,2.51,0,0,1-1.89.57h-1.66V321Zm.85-3.38h1.67a1.78,1.78,0,0,0,1.17-.31,1.11,1.11,0,0,0,.35-.87,1.19,1.19,0,0,0-.2-.69,1,1,0,0,0-.54-.38,3.54,3.54,0,0,0-.8-.06h-1.65Z" transform="translate(-75.52 -303.79)"/><path class="cls-2" d="M156.52,318.7a2.42,2.42,0,0,1,.72-1.92,2.2,2.2,0,0,1,1.47-.52,2.07,2.07,0,0,1,1.57.64,2.38,2.38,0,0,1,.61,1.74,3,3,0,0,1-.27,1.41,1.87,1.87,0,0,1-.79.81,2.24,2.24,0,0,1-1.12.28,2.11,2.11,0,0,1-1.59-.63A2.52,2.52,0,0,1,156.52,318.7Zm.81,0a2,2,0,0,0,.39,1.35,1.28,1.28,0,0,0,1,.44,1.25,1.25,0,0,0,1-.45,2,2,0,0,0,.39-1.36,2,2,0,0,0-.39-1.32,1.32,1.32,0,0,0-2,0A2,2,0,0,0,157.33,318.7Z" transform="translate(-75.52 -303.79)"/><path class="cls-2" d="M161.82,321v-4.67h.71V317a1.69,1.69,0,0,1,1.49-.77,1.77,1.77,0,0,1,.77.16,1.23,1.23,0,0,1,.53.39,1.57,1.57,0,0,1,.25.59,4.51,4.51,0,0,1,0,.77V321h-.79V318.2a2.13,2.13,0,0,0-.09-.72.78.78,0,0,0-.33-.39,1.1,1.1,0,0,0-.55-.14,1.28,1.28,0,0,0-.87.32,1.56,1.56,0,0,0-.37,1.22V321Z" transform="translate(-75.52 -303.79)"/><path class="cls-2" d="M166.68,321.42l.77.12a.73.73,0,0,0,.27.52,1.33,1.33,0,0,0,.8.22,1.46,1.46,0,0,0,.85-.22,1.11,1.11,0,0,0,.4-.62,5.26,5.26,0,0,0,.06-1,1.66,1.66,0,0,1-1.29.61,1.75,1.75,0,0,1-1.49-.7,2.68,2.68,0,0,1-.53-1.66,3.15,3.15,0,0,1,.24-1.24,2,2,0,0,1,.7-.87,2,2,0,0,1,1.08-.31,1.71,1.71,0,0,1,1.37.67v-.56h.72v4a3.81,3.81,0,0,1-.22,1.55,1.67,1.67,0,0,1-.7.72,2.51,2.51,0,0,1-1.18.26,2.23,2.23,0,0,1-1.35-.37A1.28,1.28,0,0,1,166.68,321.42Zm.65-2.8a2,2,0,0,0,.37,1.34,1.16,1.16,0,0,0,.91.42,1.18,1.18,0,0,0,.92-.42,2,2,0,0,0,.37-1.31,1.94,1.94,0,0,0-.38-1.3,1.18,1.18,0,0,0-.92-.43,1.14,1.14,0,0,0-.9.43A1.92,1.92,0,0,0,167.33,318.62Z" transform="translate(-75.52 -303.79)"/><path class="cls-2" d="M158.06,345.13v-6.45h.85v2.65h3.35v-2.65h.85v6.45h-.85v-3h-3.35v3Z" transform="translate(-75.52 -303.79)"/><path class="cls-2" d="M164.43,339.59v-.91h.79v.91Zm0,5.54v-4.67h.79v4.67Z" transform="translate(-75.52 -303.79)"/><path class="cls-2" d="M166.28,345.51l.77.12a.72.72,0,0,0,.27.52,1.38,1.38,0,0,0,.8.22,1.46,1.46,0,0,0,.85-.22,1.12,1.12,0,0,0,.41-.62,4.75,4.75,0,0,0,.05-1,1.63,1.63,0,0,1-1.29.61,1.75,1.75,0,0,1-1.49-.7,2.67,2.67,0,0,1-.52-1.66,3.15,3.15,0,0,1,.24-1.24,2,2,0,0,1,.7-.87,1.91,1.91,0,0,1,1.08-.31,1.69,1.69,0,0,1,1.36.67v-.56h.73v4A4,4,0,0,1,170,346a1.7,1.7,0,0,1-.71.72,2.48,2.48,0,0,1-1.18.26,2.23,2.23,0,0,1-1.35-.37A1.3,1.3,0,0,1,166.28,345.51Zm.66-2.8a2,2,0,0,0,.36,1.34,1.18,1.18,0,0,0,.92.42,1.16,1.16,0,0,0,.91-.42,1.93,1.93,0,0,0,.37-1.31,2,2,0,0,0-.38-1.3,1.17,1.17,0,0,0-.92-.43,1.11,1.11,0,0,0-.89.43A1.87,1.87,0,0,0,166.94,342.71Z" transform="translate(-75.52 -303.79)"/><path class="cls-2" d="M171.43,345.13v-6.45h.8V341a1.74,1.74,0,0,1,1.39-.65,1.81,1.81,0,0,1,.9.21,1.19,1.19,0,0,1,.55.56,2.6,2.6,0,0,1,.17,1.05v3h-.8v-3a1.21,1.21,0,0,0-.25-.86,1,1,0,0,0-.73-.27,1.28,1.28,0,0,0-.66.18,1,1,0,0,0-.44.49,2.25,2.25,0,0,0-.13.86v2.56Z" transform="translate(-75.52 -303.79)"/><path class="cls-2" d="M156.53,355.93v-6.45H159a4.85,4.85,0,0,1,1,.07,1.91,1.91,0,0,1,.8.3,1.58,1.58,0,0,1,.51.62,2,2,0,0,1,.2.88,2,2,0,0,1-.52,1.39,2.51,2.51,0,0,1-1.89.57h-1.66v2.62Zm.85-3.38h1.67a1.78,1.78,0,0,0,1.17-.31,1.08,1.08,0,0,0,.35-.87,1.19,1.19,0,0,0-.2-.69,1,1,0,0,0-.54-.38,3.54,3.54,0,0,0-.8-.06h-1.65Z" transform="translate(-75.52 -303.79)"/><path class="cls-2" d="M165.48,355.35a2.87,2.87,0,0,1-.85.53,2.49,2.49,0,0,1-.87.15,1.69,1.69,0,0,1-1.18-.37,1.22,1.22,0,0,1-.41-1,1.33,1.33,0,0,1,.15-.63,1.28,1.28,0,0,1,.41-.45,1.64,1.64,0,0,1,.57-.26,4.67,4.67,0,0,1,.7-.12,7,7,0,0,0,1.41-.28,1.92,1.92,0,0,0,0-.2.87.87,0,0,0-.23-.68,1.31,1.31,0,0,0-.9-.27,1.4,1.4,0,0,0-.82.19,1.21,1.21,0,0,0-.39.7l-.78-.11a1.9,1.9,0,0,1,.35-.8,1.52,1.52,0,0,1,.7-.47,3.1,3.1,0,0,1,1.06-.17,2.89,2.89,0,0,1,1,.14,1.38,1.38,0,0,1,.55.36,1.22,1.22,0,0,1,.24.54,4,4,0,0,1,0,.73V354a12.19,12.19,0,0,0,0,1.4,2,2,0,0,0,.2.56h-.82A1.71,1.71,0,0,1,165.48,355.35Zm-.07-1.77a5.35,5.35,0,0,1-1.29.3,3.22,3.22,0,0,0-.69.16.72.72,0,0,0-.31.26.7.7,0,0,0-.11.37.66.66,0,0,0,.24.53,1,1,0,0,0,.7.21,1.55,1.55,0,0,0,.81-.2,1.25,1.25,0,0,0,.53-.54,2.07,2.07,0,0,0,.12-.8Z" transform="translate(-75.52 -303.79)"/><path class="cls-2" d="M167.12,354.53l.79-.12a1.09,1.09,0,0,0,.36.72,1.26,1.26,0,0,0,.84.25,1.21,1.21,0,0,0,.81-.22.66.66,0,0,0,.27-.52.47.47,0,0,0-.24-.42,3.37,3.37,0,0,0-.81-.27,7.17,7.17,0,0,1-1.2-.38,1.13,1.13,0,0,1-.51-.45,1.1,1.1,0,0,1-.18-.62,1.27,1.27,0,0,1,.54-1,1.56,1.56,0,0,1,.5-.23,2.48,2.48,0,0,1,.68-.1,2.86,2.86,0,0,1,1,.16,1.37,1.37,0,0,1,.61.43,1.69,1.69,0,0,1,.27.72l-.77.11a.85.85,0,0,0-.31-.56,1.06,1.06,0,0,0-.71-.21,1.32,1.32,0,0,0-.78.18.55.55,0,0,0-.23.43.39.39,0,0,0,.1.27.58.58,0,0,0,.3.21l.7.21a11.21,11.21,0,0,1,1.17.36,1.28,1.28,0,0,1,.52.42,1.14,1.14,0,0,1,.19.68,1.34,1.34,0,0,1-.23.74,1.58,1.58,0,0,1-.67.54,2.38,2.38,0,0,1-1,.19,2.15,2.15,0,0,1-1.39-.38A1.74,1.74,0,0,1,167.12,354.53Z" transform="translate(-75.52 -303.79)"/><path class="cls-2" d="M171.62,354.53l.79-.12a1.09,1.09,0,0,0,.36.72,1.26,1.26,0,0,0,.84.25,1.21,1.21,0,0,0,.81-.22.66.66,0,0,0,.27-.52.47.47,0,0,0-.24-.42,3.37,3.37,0,0,0-.81-.27,7.17,7.17,0,0,1-1.2-.38,1.13,1.13,0,0,1-.51-.45,1.1,1.1,0,0,1-.18-.62,1.27,1.27,0,0,1,.54-1,1.56,1.56,0,0,1,.5-.23,2.48,2.48,0,0,1,.68-.1,2.86,2.86,0,0,1,1,.16,1.37,1.37,0,0,1,.61.43,1.69,1.69,0,0,1,.27.72l-.77.11a.85.85,0,0,0-.31-.56,1.06,1.06,0,0,0-.71-.21,1.32,1.32,0,0,0-.78.18.55.55,0,0,0-.23.43.39.39,0,0,0,.1.27.58.58,0,0,0,.3.21l.7.21a11.21,11.21,0,0,1,1.17.36,1.28,1.28,0,0,1,.52.42,1.14,1.14,0,0,1,.19.68,1.34,1.34,0,0,1-.23.74,1.58,1.58,0,0,1-.67.54,2.38,2.38,0,0,1-1,.19,2.15,2.15,0,0,1-1.39-.38A1.74,1.74,0,0,1,171.62,354.53Z" transform="translate(-75.52 -303.79)"/><path class="cls-2" d="M147.72,379.81v-5.68H145.6v-.76h5.11v.76h-2.13v5.68Z" transform="translate(-75.52 -303.79)"/><path class="cls-2" d="M153.53,379.23a2.87,2.87,0,0,1-.85.53,2.49,2.49,0,0,1-.87.16,1.69,1.69,0,0,1-1.18-.38,1.23,1.23,0,0,1-.42-1,1.34,1.34,0,0,1,.16-.63,1.19,1.19,0,0,1,.41-.45,1.85,1.85,0,0,1,.57-.26,6.05,6.05,0,0,1,.7-.12,8,8,0,0,0,1.41-.27c0-.11,0-.18,0-.21a.87.87,0,0,0-.23-.68,1.31,1.31,0,0,0-.9-.27,1.37,1.37,0,0,0-.82.2,1.21,1.21,0,0,0-.4.69l-.77-.1a2,2,0,0,1,.35-.81,1.52,1.52,0,0,1,.7-.47,3.07,3.07,0,0,1,1.06-.16,2.69,2.69,0,0,1,1,.14,1.28,1.28,0,0,1,.55.35,1.22,1.22,0,0,1,.24.54,4.11,4.11,0,0,1,0,.73v1.05a12.06,12.06,0,0,0,.05,1.4,2,2,0,0,0,.2.56h-.82A1.46,1.46,0,0,1,153.53,379.23Zm-.07-1.76a5.47,5.47,0,0,1-1.29.3,2.7,2.7,0,0,0-.69.16.64.64,0,0,0-.31.25.7.7,0,0,0-.11.38.69.69,0,0,0,.24.53,1,1,0,0,0,.7.21,1.68,1.68,0,0,0,.81-.2,1.25,1.25,0,0,0,.52-.55,1.82,1.82,0,0,0,.13-.79Z" transform="translate(-75.52 -303.79)"/><path class="cls-2" d="M155.49,381.6v-6.46h.72v.61a1.67,1.67,0,0,1,.57-.53,1.61,1.61,0,0,1,.78-.18,1.83,1.83,0,0,1,1.06.31,1.92,1.92,0,0,1,.69.86,3.32,3.32,0,0,1,.23,1.23,3.13,3.13,0,0,1-.26,1.29,1.95,1.95,0,0,1-1.77,1.19,1.46,1.46,0,0,1-.71-.17,1.55,1.55,0,0,1-.52-.42v2.27Zm.71-4.1a2,2,0,0,0,.37,1.33,1.12,1.12,0,0,0,.88.44,1.17,1.17,0,0,0,.91-.45,2.13,2.13,0,0,0,.37-1.38,2,2,0,0,0-.37-1.34,1.1,1.1,0,0,0-.87-.44,1.13,1.13,0,0,0-.9.47A2.09,2.09,0,0,0,156.2,377.5Z" transform="translate(-75.52 -303.79)"/><path class="cls-2" d="M163.69,378.31l.82.1a2,2,0,0,1-.72,1.11,2.18,2.18,0,0,1-1.34.4,2.1,2.1,0,0,1-1.62-.64,2.45,2.45,0,0,1-.6-1.76,2.55,2.55,0,0,1,.61-1.83,2.2,2.2,0,0,1,3.1,0,2.58,2.58,0,0,1,.59,1.8v.21h-3.48a1.83,1.83,0,0,0,.43,1.18,1.31,1.31,0,0,0,1,.41,1.21,1.21,0,0,0,.74-.23A1.54,1.54,0,0,0,163.69,378.31Zm-2.6-1.28h2.61a1.63,1.63,0,0,0-.3-.88,1.2,1.2,0,0,0-1-.46,1.28,1.28,0,0,0-.92.36A1.47,1.47,0,0,0,161.09,377Z" transform="translate(-75.52 -303.79)"/></svg>