<svg id="Capa_1" data-name="Capa 1" xmlns="http://www.w3.org/2000/svg" viewBox="0 0 640 640"><defs><style>.cls-1{fill:#202021;}.cls-2{fill:#fff;}.cls-2,.cls-3{stroke:#1d1d1b;}.cls-2,.cls-3,.cls-4,.cls-5{stroke-miterlimit:10;stroke-width:2px;}.cls-3,.cls-4,.cls-7{fill:#1d1d1b;}.cls-4,.cls-5{stroke:#fff;}.cls-5{fill:none;}.cls-6{fill:#d42029;}.cls-8{fill:#b4b4b4;}</style></defs><rect class="cls-1" width="640" height="640" rx="28.35"/><rect class="cls-2" x="53.88" y="400.34" width="56.69" height="189.66"/><rect class="cls-2" x="110.57" y="400.34" width="47.65" height="189.66"/><rect class="cls-2" x="157.22" y="400.34" width="47.65" height="189.66"/><rect class="cls-2" x="204.87" y="400.34" width="47.65" height="189.66"/><rect class="cls-2" x="252.05" y="400.34" width="47.65" height="189.66"/><rect class="cls-2" x="298.7" y="400.34" width="47.65" height="189.66"/><rect class="cls-2" x="346.35" y="400.34" width="47.65" height="189.66"/><rect class="cls-2" x="393" y="400.34" width="47.65" height="189.66"/><rect class="cls-2" x="437.65" y="400.34" width="47.65" height="189.66"/><rect class="cls-2" x="484.3" y="400.34" width="47.65" height="189.66"/><rect class="cls-2" x="529.43" y="400.34" width="56.69" height="189.66"/><rect class="cls-3" x="93.56" y="404.82" width="34.02" height="90.35"/><rect class="cls-3" x="187.86" y="404.82" width="34.02" height="90.35"/><rect class="cls-3" x="235.51" y="404.82" width="34.02" height="90.35"/><rect class="cls-3" x="329.34" y="404.82" width="34.02" height="90.35"/><rect class="cls-3" x="375.99" y="404.82" width="34.02" height="90.35"/><rect class="cls-3" x="420.64" y="404.82" width="34.02" height="90.35"/><rect class="cls-3" x="512.42" y="404.82" width="34.02" height="90.35"/><circle class="cls-4" cx="76.56" cy="320" r="22.68"/><circle class="cls-4" cx="191.36" cy="320" r="22.68"/><circle class="cls-4" cx="134.4" cy="320" r="22.68"/><circle class="cls-4" cx="563.44" cy="320" r="22.68"/><rect class="cls-5" x="261.41" y="305.41" width="176.24" height="30.07"/><circle class="cls-4" cx="292.21" cy="320" r="22.68"/><circle class="cls-4" cx="407.01" cy="320" r="22.68"/><circle class="cls-4" cx="350.05" cy="320" r="22.68"/><circle class="cls-6" cx="76.56" cy="272.77" r="8.5"/><circle class="cls-6" cx="191.36" cy="272.77" r="8.5"/><circle class="cls-6" cx="134.4" cy="272.77" r="8.5"/><circle class="cls-6" cx="292.12" cy="272.77" r="8.5"/><circle class="cls-6" cx="406.93" cy="272.77" r="8.5"/><circle class="cls-6" cx="349.97" cy="272.77" r="8.5"/><circle class="cls-6" cx="563.44" cy="272.77" r="8.5"/><rect class="cls-7" x="53.88" y="69.63" width="181.64" height="102.07"/><path class="cls-6" d="M61,117.73V98.54l2.73-2.73,2.73,2.73v19.19l-2.73,2.73Zm0,31.45V125.92l2.73-2.73,2.73,2.73v23.26l-2.73,2.73Zm4.12-54.71,2.73-2.73H87l2.73,2.73L87,97.2H67.89Zm23.26,23.26V98.54l2.73-2.73,2.73,2.73v19.19l-2.73,2.73Zm0,31.45V125.92l2.73-2.73,2.73,2.73v23.26l-2.73,2.73Z"/><path class="cls-6" d="M104.21,94.47l2.73-2.77H120l2.73,2.77L120,97.2h-13.1Zm17.22,23.22V98.54l2.77-2.73,2.73,2.73v19.15l-2.73,2.77Zm0,31.49V125.92l2.77-2.73,2.73,2.73v23.26l-2.73,2.73Zm4.16-54.71,2.73-2.77h13.1l2.73,2.77-2.73,2.73h-13.1Z"/><path class="cls-6" d="M154.52,117.69V98.54l2.73-2.73L160,98.54v19.15l-2.73,2.77Zm4.11-23.22,2.73-2.77h19.15l2.73,2.77-2.73,2.73H161.36Zm0,27.33,2.73-2.73h19.15l2.73,2.73-2.73,2.73H161.36Zm0,27.38,2.73-2.73h19.15l2.73,2.73-2.73,2.73H161.36Zm23.27-4.11V125.92l2.73-2.73,2.73,2.73v19.15l-2.73,2.73Z"/><path class="cls-6" d="M223.47,117.35v-23l2.73-2.77,2.73,2.77v23l-2.73,2.73Zm0,31.83v-23.6l2.73-2.77,2.73,2.77v23.6l-2.73,2.73Z"/><rect class="cls-8" x="268.97" y="69.63" width="102.07" height="102.07" rx="14.17"/><rect class="cls-8" x="489.74" y="83.81" width="73.7" height="73.7" rx="14.17"/><rect class="cls-8" x="393.54" y="83.81" width="73.7" height="73.7" rx="14.17"/><circle class="cls-4" cx="320" cy="120.66" r="22.68"/><circle class="cls-4" cx="430.69" cy="120.66" r="22.68"/><circle class="cls-4" cx="527.43" cy="120.66" r="22.68"/></svg>