<?xml version="1.0" encoding="utf-8"?>
<!-- Generator: Adobe Illustrator 20.1.0, SVG Export Plug-In . SVG Version: 6.00 Build 0)  -->
<svg version="1.1" id="Layer_1" xmlns="http://www.w3.org/2000/svg" xmlns:xlink="http://www.w3.org/1999/xlink" x="0px" y="0px"
	 viewBox="0 0 141.7 141.7" style="enable-background:new 0 0 141.7 141.7;" xml:space="preserve">
<style type="text/css">
	.st0{fill:#414042;}
	.st1{fill:#939598;}
	.st2{fill:#FFFFFF;}
	.st3{fill:none;stroke:#FFFFFF;stroke-width:1.3461;stroke-linecap:round;stroke-miterlimit:10;}
</style>
<g>
	<g>
		<g>
			<circle class="st0" cx="70.4" cy="75" r="36.7"/>
		</g>
		<path d="M100.6,76.7c-1.8-1.9-3.1-4.3-3.6-7s-0.4-5.4,0.4-7.9c-1.7-3.5-4.1-6.6-7.1-9.2c-2.6,0.2-5.3-0.3-7.7-1.5
			c-2.5-1.3-4.5-3.1-5.9-5.2c-3.9-0.8-7.9-0.9-11.6-0.2c-1.4,2.2-3.5,3.9-6,5.1c-2.5,1.2-5.2,1.6-7.8,1.3c-3,2.4-5.5,5.5-7.4,9
			c0.7,2.5,0.9,5.2,0.3,7.9s-2,5-3.9,6.9c0.1,3.9,0.9,7.8,2.4,11.3c2.4,1,4.6,2.5,6.3,4.8c1.7,2.2,2.7,4.8,3.1,7.3
			c3.1,2.3,6.6,4.1,10.4,5.2c2.2-1.3,4.8-2,7.6-2c2.8,0,5.4,0.8,7.6,2.2c3.8-0.9,7.4-2.6,10.5-4.9c0.4-2.6,1.4-5,3.2-7.2
			s4-3.7,6.5-4.6c0.8-1.7,1.4-3.6,1.9-5.5C100.3,80.6,100.5,78.6,100.6,76.7z"/>
		
			<ellipse transform="matrix(0.2359 -0.9718 0.9718 0.2359 -19.1643 125.6766)" class="st1" cx="70.3" cy="75" rx="20.6" ry="20.6"/>
		<path class="st2" d="M71.3,38.3c-0.3,0-0.6,0-0.9,0s-0.6,0-0.9,0v24h1.9L71.3,38.3L71.3,38.3z"/>
	</g>
	<g>
		<line class="st3" x1="113.6" y1="75" x2="118.5" y2="75"/>
		<line class="st3" x1="22.2" y1="75" x2="27.2" y2="75"/>
		<line class="st3" x1="107.7" y1="53.5" x2="112" y2="50.9"/>
		<line class="st3" x1="28.7" y1="99.1" x2="33" y2="96.6"/>
		<line class="st3" x1="91.9" y1="37.7" x2="94.4" y2="33.4"/>
		<line class="st3" x1="46.3" y1="116.7" x2="48.8" y2="112.4"/>
		<line class="st3" x1="48.8" y1="37.7" x2="46.3" y2="33.4"/>
		<line class="st3" x1="94.4" y1="116.7" x2="91.9" y2="112.4"/>
		<line class="st3" x1="33" y1="53.5" x2="28.7" y2="50.9"/>
		<line class="st3" x1="112" y1="99.1" x2="107.7" y2="96.6"/>
		<circle class="st2" cx="70.4" cy="28.3" r="2.2"/>
	</g>
</g>
</svg>
