<svg
      xmlns="http://www.w3.org/2000/svg"
      width="1024"
      height="352"
      version="1.1"
      viewBox="-1.237 -1.237 127.301 43.703"
    >
      <path
        fill="#f3cc62"
        fillOpacity="1"
        fillRule="nonzero"
        stroke="none"
        d="M123.28.206h-17.962c-8.714 0-9.327 8.525-9.327 8.525v23.676c.013 7.605 8.675 8.584 8.675 8.584h18.614V18.888c2.137 0 1.987-3.986 0-3.986h-11.838v15.103c0 2.807-4.075 2.807-4.075 0V11.227c0-1.817 2.038-2.041 2.038-2.041h13.875V.206M79.204 14.495c0 2.416-4.088 2.682-4.088 0v-4.083c-.112-2.802 4.1-2.851 4.088 0v4.083zm9.787 7.346l-4.9-1.224c3.825-1.005 5.913-3.107 5.975-6.557V6.11c0-1.35-1.712-5.7-7.2-5.903H63.691v40.821h11.425V25.515c-.262-.803 1.838-2.605 2.425-.25l3.288 15.763H93.49l-4.5-19.187m-41.639 8.164c0 2.55-4.075 2.595-4.075 0V11.227c0-2.569 4.075-2.55 4.075 0v18.778zm11.4-21.347s-.4-8.25-9.35-8.657H41.24c-1.05-.036-9.289 1.157-9.401 9.39v23.201s.712 8.619 9.401 8.638h8.162s9.4-.32 9.388-9.387l-.038-23.185M0 41.027V.206h11.438v15.102c.187 2.052 2.274 1.14 2.424.195L16.338.206h12.65l-4.487 18.777-4.9 1.223 5.3 1.226 4.5 19.595H16.74l-2.876-16.539c-.138-1.28-2.388-1.291-2.425.21-.038 1.499 0 16.329 0 16.329H0"
      ></path>
    </svg>