<?xml version="1.0" encoding="UTF-8" standalone="no"?>
<svg
   xmlns:dc="http://purl.org/dc/elements/1.1/"
   xmlns:cc="http://creativecommons.org/ns#"
   xmlns:rdf="http://www.w3.org/1999/02/22-rdf-syntax-ns#"
   xmlns:svg="http://www.w3.org/2000/svg"
   xmlns="http://www.w3.org/2000/svg"
   xmlns:sodipodi="http://sodipodi.sourceforge.net/DTD/sodipodi-0.dtd"
   xmlns:inkscape="http://www.inkscape.org/namespaces/inkscape"
   version="1.1"
   width="1024"
   height="352"
   viewBox="-1.2368859 -1.2368859 127.3011518 43.7033018"
   id="svg41270"
   sodipodi:docname="korg.svg"
   inkscape:version="1.0.1 (3bc2e813f5, 2020-09-07)">
  <metadata
     id="metadata22">
    <rdf:RDF>
      <cc:Work
         rdf:about="">
        <dc:format>image/svg+xml</dc:format>
        <dc:type
           rdf:resource="http://purl.org/dc/dcmitype/StillImage" />
      </cc:Work>
    </rdf:RDF>
  </metadata>
  <sodipodi:namedview
     pagecolor="#ffffff"
     bordercolor="#666666"
     borderopacity="1"
     objecttolerance="10"
     gridtolerance="10"
     guidetolerance="10"
     inkscape:pageopacity="0"
     inkscape:pageshadow="2"
     inkscape:window-width="1600"
     inkscape:window-height="837"
     id="namedview20"
     showgrid="false"
     inkscape:zoom="0.99316406"
     inkscape:cx="512"
     inkscape:cy="176"
     inkscape:window-x="1358"
     inkscape:window-y="-8"
     inkscape:window-maximized="1"
     inkscape:current-layer="svg41270" />
  <defs
     id="defs41272" />
  <path
     d="m 123.28,0.2057815 -17.9625,0 c -8.71375,0 -9.32625,8.525 -9.32625,8.525 l 0,23.6762505 c 0.0125,7.605 8.675,8.58375 8.675,8.58375 l 18.61375,0 0,-22.1025 c 2.1375,0 1.9875,-3.98625 0,-3.98625 -1.8,0 -11.8375,0 -11.8375,0 l 0,15.1025 c 0,2.8075 -4.075,2.8075 -4.075,0 0,-2.84875 0,-18.7775 0,-18.7775 0,-1.8175005 2.0375,-2.0412505 2.0375,-2.0412505 l 13.875,0 0,-8.98 M 79.20375,14.494532 c 0,2.41625 -4.0875,2.6825 -4.0875,0 l 0,-4.0825 c -0.1125,-2.8025005 4.1,-2.8512505 4.0875,0 l 0,4.0825 z m 9.7875,7.34625 -4.9,-1.22375 c 3.825,-1.005 5.9125,-3.1075 5.975,-6.5575 l 0,-7.9487505 c 0,-1.35 -1.7125,-5.70125 -7.2,-5.90375 l -19.175,0 0,40.8212505 11.425,0 0,-15.51375 c -0.2625,-0.8025 1.8375,-2.605 2.425,-0.24875 l 3.2875,15.7625 12.6625,0 -4.5,-19.1875 m -41.63875,8.16375 c 0,2.55125 -4.075,2.595 -4.075,0 l 0,-18.7775 c 0,-2.5687505 4.075,-2.5500005 4.075,0 0,2.55125 0,16.22875 0,18.7775 z m 11.4,-21.3462505 c 0,0 -0.4,-8.25 -9.35,-8.657499998 l -8.1625,0 C 40.19,-0.0354185 31.95125,1.1582815 31.83875,9.3907815 l 0,23.2012505 c 0,0 0.7125,8.61875 9.40125,8.6375 l 8.1625,0 c 0,0 9.4,-0.31875 9.3875,-9.38625 L 58.7525,8.6582815 M 0,41.027032 0,0.2057815 l 11.4375,0 0,15.1025005 c 0.1875,2.05125 2.275,1.14 2.425,0.195 l 2.475,-15.2975005 12.65125,0 -4.4875,18.7775005 -4.9,1.2225 5.3,1.22625 4.5,19.595 -12.6625,0 -2.87625,-16.53875 c -0.1375,-1.28 -2.3875,-1.29125 -2.425,0.21 -0.0375,1.49875 0,16.32875 0,16.32875 l -11.4375,0"
     id="path15272"
     style="fill:#f3cc62;fill-opacity:1;fill-rule:nonzero;stroke:none" />
</svg>
