<svg id="Capa_1" data-name="Capa 1" xmlns="http://www.w3.org/2000/svg" viewBox="0 0 96.88 84.6"><defs><style>.cls-1,.cls-3{fill:none;stroke-miterlimit:4.8;stroke-width:2px;}.cls-1{stroke:#b4b4b4;}.cls-2{fill:#b4b4b4;}.cls-3{stroke:#1d1d1b;}</style></defs><path class="cls-1" d="M93.74,376.15v5H98.6v-5h4.87v5" transform="translate(-81.39 -297.5)"/><path class="cls-1" d="M82.17,327l3.52,4.41L89.21,327l3.52,4.41" transform="translate(-81.39 -297.5)"/><path class="cls-1" d="M122.53,302.87l7.2-3.73v3.73l7.19-3.73" transform="translate(-81.39 -297.5)"/><path class="cls-1" d="M166.89,331.38c2.94-5.2,4-6.15,4.49-6s.51,1.06.61,2c.15,1.33-.06,2.24.12,2.27s1-2.43,1.7-2.37c.48,0,.52,1.43,1.09,1.48s.79-1,1.46-1c.43,0,.8.38,1.09.79" transform="translate(-81.39 -297.5)"/><path class="cls-2" d="M156.39,381.1l2.48-6.44h.92l2.63,6.44h-1l-.75-2H158l-.71,2Zm1.86-2.65h2.19l-.68-1.78c-.2-.54-.35-1-.45-1.34a7.5,7.5,0,0,1-.35,1.23Z" transform="translate(-81.39 -297.5)"/><path class="cls-2" d="M163,381.1v-6.44h.79v6.44Z" transform="translate(-81.39 -297.5)"/><path class="cls-2" d="M166.73,380.39l.11.7a2.68,2.68,0,0,1-.59.07,1.26,1.26,0,0,1-.67-.14.82.82,0,0,1-.34-.35,3.07,3.07,0,0,1-.09-.94v-2.68h-.58v-.62h.58v-1.15l.78-.48v1.63h.8v.62h-.8v2.73a1.21,1.21,0,0,0,0,.43.29.29,0,0,0,.13.16.68.68,0,0,0,.27.05Z" transform="translate(-81.39 -297.5)"/><path class="cls-3" d="M-230.14,342.16" transform="translate(-81.39 -297.5)"/></svg>