<svg id="Capa_1" data-name="Capa 1" xmlns="http://www.w3.org/2000/svg" viewBox="0 0 95.81 71.57"><defs><style>.cls-1{fill:none;stroke:#1d1d1b;stroke-miterlimit:4.8;stroke-width:2px;}.cls-2{fill:#b4b4b4;}</style></defs><path class="cls-1" d="M-230.14,342.16" transform="translate(-83.85 -308.35)"/><path class="cls-2" d="M100.67,376.67a3.52,3.52,0,0,1,.86-2.51,3,3,0,0,1,2.22-.91,3.13,3.13,0,0,1,1.61.43,2.73,2.73,0,0,1,1.09,1.19,3.86,3.86,0,0,1,.38,1.73,3.7,3.7,0,0,1-.4,1.75,2.59,2.59,0,0,1-1.12,1.17,3.12,3.12,0,0,1-1.56.4,3.08,3.08,0,0,1-1.63-.44,2.79,2.79,0,0,1-1.08-1.2A3.59,3.59,0,0,1,100.67,376.67Zm.88,0a2.62,2.62,0,0,0,.62,1.83,2.19,2.19,0,0,0,3.16,0,2.75,2.75,0,0,0,.62-1.92,3.25,3.25,0,0,0-.27-1.37,2,2,0,0,0-.77-.91,2.16,2.16,0,0,0-1.15-.32,2.14,2.14,0,0,0-1.56.62A2.76,2.76,0,0,0,101.55,376.69Z" transform="translate(-83.85 -308.35)"/><path class="cls-2" d="M108,379.81v-4.05h-.7v-.62h.7v-.49a2.05,2.05,0,0,1,.08-.7,1,1,0,0,1,.4-.5,1.43,1.43,0,0,1,.81-.19,3.4,3.4,0,0,1,.74.08l-.12.69a2.69,2.69,0,0,0-.47,0,.66.66,0,0,0-.51.16.81.81,0,0,0-.15.57v.43h.91v.62h-.91v4.05Z" transform="translate(-83.85 -308.35)"/><path class="cls-2" d="M110.35,379.81v-4.05h-.69v-.62h.69v-.49a2,2,0,0,1,.09-.7,1,1,0,0,1,.4-.5,1.43,1.43,0,0,1,.81-.19,3.25,3.25,0,0,1,.73.08l-.11.69a2.69,2.69,0,0,0-.47,0,.66.66,0,0,0-.51.16.81.81,0,0,0-.15.57v.43h.91v.62h-.91v4.05Z" transform="translate(-83.85 -308.35)"/><path class="cls-2" d="M83.85,348.26v-6.44h.85v2.65h3.35v-2.65h.85v6.44h-.85v-3H84.7v3Z" transform="translate(-83.85 -308.35)"/><path class="cls-2" d="M93.27,347.69a3,3,0,0,1-.85.52,2.28,2.28,0,0,1-.87.16,1.69,1.69,0,0,1-1.18-.38,1.23,1.23,0,0,1-.42-1,1.33,1.33,0,0,1,.57-1.08,2.12,2.12,0,0,1,.57-.26,6.05,6.05,0,0,1,.7-.12,6.48,6.48,0,0,0,1.41-.27c0-.11,0-.18,0-.21a.88.88,0,0,0-.23-.68,1.31,1.31,0,0,0-.9-.26,1.38,1.38,0,0,0-.82.19,1.21,1.21,0,0,0-.4.69l-.77-.1a1.9,1.9,0,0,1,.35-.8,1.45,1.45,0,0,1,.7-.47,3.06,3.06,0,0,1,1.06-.17,2.93,2.93,0,0,1,1,.14,1.37,1.37,0,0,1,.55.35,1.33,1.33,0,0,1,.24.54,4.11,4.11,0,0,1,0,.73v1.06a12,12,0,0,0,0,1.39,1.88,1.88,0,0,0,.2.56h-.82A1.41,1.41,0,0,1,93.27,347.69Zm-.07-1.77a5.6,5.6,0,0,1-1.29.3,2.93,2.93,0,0,0-.69.16.62.62,0,0,0-.31.26.6.6,0,0,0-.11.37.68.68,0,0,0,.24.53,1,1,0,0,0,.7.21,1.68,1.68,0,0,0,.81-.2,1.2,1.2,0,0,0,.52-.55,1.82,1.82,0,0,0,.13-.79Z" transform="translate(-83.85 -308.35)"/><path class="cls-2" d="M95.21,348.26v-6.44H96v6.44Z" transform="translate(-83.85 -308.35)"/><path class="cls-2" d="M97.21,348.26v-6.44H98v6.44Z" transform="translate(-83.85 -308.35)"/><path class="cls-2" d="M98.13,316.53v-6.45h2.43a4.85,4.85,0,0,1,1,.07,1.91,1.91,0,0,1,.8.3,1.58,1.58,0,0,1,.51.62,2,2,0,0,1,.2.88,2,2,0,0,1-.52,1.39,2.51,2.51,0,0,1-1.89.57H99v2.62Zm.85-3.38h1.67a1.78,1.78,0,0,0,1.17-.31,1.08,1.08,0,0,0,.35-.87,1.19,1.19,0,0,0-.2-.69,1,1,0,0,0-.54-.38,3.54,3.54,0,0,0-.8-.06H99Z" transform="translate(-83.85 -308.35)"/><path class="cls-2" d="M104,316.53v-6.45h.79v6.45Z" transform="translate(-83.85 -308.35)"/><path class="cls-2" d="M109.08,316a2.87,2.87,0,0,1-.85.53,2.49,2.49,0,0,1-.87.15,1.69,1.69,0,0,1-1.18-.37,1.22,1.22,0,0,1-.41-1,1.33,1.33,0,0,1,.15-.63,1.28,1.28,0,0,1,.41-.45,1.64,1.64,0,0,1,.57-.26,6.05,6.05,0,0,1,.7-.12,7,7,0,0,0,1.41-.28,1.92,1.92,0,0,0,0-.2.87.87,0,0,0-.23-.68,1.31,1.31,0,0,0-.9-.27,1.4,1.4,0,0,0-.82.19,1.21,1.21,0,0,0-.39.7l-.78-.11a1.9,1.9,0,0,1,.35-.8,1.52,1.52,0,0,1,.7-.47,3.1,3.1,0,0,1,1.06-.17,2.63,2.63,0,0,1,1,.15,1.28,1.28,0,0,1,.55.35,1.22,1.22,0,0,1,.24.54,4,4,0,0,1,0,.73v1.05a12.19,12.19,0,0,0,0,1.4,2,2,0,0,0,.2.56h-.82A1.71,1.71,0,0,1,109.08,316Zm-.07-1.77a5.35,5.35,0,0,1-1.29.3,3.22,3.22,0,0,0-.69.16.72.72,0,0,0-.31.26.7.7,0,0,0-.11.37.66.66,0,0,0,.24.53,1,1,0,0,0,.7.21,1.55,1.55,0,0,0,.81-.2,1.25,1.25,0,0,0,.53-.54,2.07,2.07,0,0,0,.12-.8Z" transform="translate(-83.85 -308.35)"/><path class="cls-2" d="M112.77,315.82l.11.7a3.46,3.46,0,0,1-.6.07,1.39,1.39,0,0,1-.67-.14.82.82,0,0,1-.33-.36,2.89,2.89,0,0,1-.1-.93v-2.68h-.58v-.62h.58V310.7l.79-.47v1.63h.8v.62H112v2.72a1.37,1.37,0,0,0,0,.44.4.4,0,0,0,.14.15.49.49,0,0,0,.27.06Z" transform="translate(-83.85 -308.35)"/><path class="cls-2" d="M116.73,315l.82.1a2.07,2.07,0,0,1-.71,1.12,2.19,2.19,0,0,1-1.34.39,2.13,2.13,0,0,1-1.62-.63,2.46,2.46,0,0,1-.6-1.77,2.62,2.62,0,0,1,.6-1.83,2.08,2.08,0,0,1,1.58-.65,2,2,0,0,1,1.52.64,2.52,2.52,0,0,1,.6,1.79,2,2,0,0,1,0,.22h-3.48a1.78,1.78,0,0,0,.44,1.17,1.26,1.26,0,0,0,1,.41,1.19,1.19,0,0,0,.75-.23A1.5,1.5,0,0,0,116.73,315Zm-2.59-1.27h2.6a1.51,1.51,0,0,0-.3-.89,1.21,1.21,0,0,0-1-.46,1.27,1.27,0,0,0-.91.37A1.4,1.4,0,0,0,114.14,313.75Z" transform="translate(-83.85 -308.35)"/><path class="cls-2" d="M140.47,312.83l.81-.07a1.64,1.64,0,0,0,.26.79,1.49,1.49,0,0,0,.65.51,2.57,2.57,0,0,0,1,.19,2.31,2.31,0,0,0,.86-.15,1.27,1.27,0,0,0,.56-.4.91.91,0,0,0,.18-.55.83.83,0,0,0-.18-.53,1.25,1.25,0,0,0-.58-.38,10.13,10.13,0,0,0-1.14-.31,6.1,6.1,0,0,1-1.25-.4,1.79,1.79,0,0,1-.69-.6,1.49,1.49,0,0,1-.22-.81,1.69,1.69,0,0,1,.27-.91,1.74,1.74,0,0,1,.81-.64,3,3,0,0,1,1.19-.22,3.33,3.33,0,0,1,1.26.23,1.83,1.83,0,0,1,.84.68,2,2,0,0,1,.32,1l-.82.06a1.29,1.29,0,0,0-.45-.92,1.7,1.7,0,0,0-1.12-.31,1.81,1.81,0,0,0-1.13.28.87.87,0,0,0-.35.69.72.72,0,0,0,.25.57,3.39,3.39,0,0,0,1.29.46,7.7,7.7,0,0,1,1.42.41,1.88,1.88,0,0,1,.83.66,1.57,1.57,0,0,1,.27.91,1.8,1.8,0,0,1-.29,1,2,2,0,0,1-.85.71,2.92,2.92,0,0,1-1.24.25,3.76,3.76,0,0,1-1.47-.25,2,2,0,0,1-.92-.77A2.12,2.12,0,0,1,140.47,312.83Z" transform="translate(-83.85 -308.35)"/><path class="cls-2" d="M146.66,316.69v-6.46h.72v.61a1.8,1.8,0,0,1,.58-.53,1.55,1.55,0,0,1,.78-.18,1.84,1.84,0,0,1,1.74,1.17,3.3,3.3,0,0,1,0,2.52,1.91,1.91,0,0,1-.75.88,2,2,0,0,1-1,.31,1.52,1.52,0,0,1-.71-.17,1.66,1.66,0,0,1-.52-.42v2.27Zm.72-4.1a2.08,2.08,0,0,0,.36,1.34,1.16,1.16,0,0,0,.89.43,1.14,1.14,0,0,0,.9-.45,2.12,2.12,0,0,0,.38-1.38,2.1,2.1,0,0,0-.37-1.34,1.13,1.13,0,0,0-.88-.44,1.15,1.15,0,0,0-.89.47A2.11,2.11,0,0,0,147.38,312.59Z" transform="translate(-83.85 -308.35)"/><path class="cls-2" d="M154.71,314.33a3,3,0,0,1-.84.52,2.28,2.28,0,0,1-.87.16,1.72,1.72,0,0,1-1.19-.38,1.25,1.25,0,0,1-.41-1,1.23,1.23,0,0,1,.16-.63,1.19,1.19,0,0,1,.41-.45,1.92,1.92,0,0,1,.56-.26,6.31,6.31,0,0,1,.71-.12,7.16,7.16,0,0,0,1.41-.27v-.21a.87.87,0,0,0-.22-.68,1.31,1.31,0,0,0-.9-.27,1.43,1.43,0,0,0-.83.2,1.26,1.26,0,0,0-.39.69l-.77-.1a1.94,1.94,0,0,1,.34-.81,1.63,1.63,0,0,1,.7-.47,3.15,3.15,0,0,1,1.06-.16,2.89,2.89,0,0,1,1,.14,1.22,1.22,0,0,1,.55.35,1.29,1.29,0,0,1,.25.54,4.11,4.11,0,0,1,0,.73V313a10,10,0,0,0,.05,1.39,1.64,1.64,0,0,0,.2.56h-.83A1.9,1.9,0,0,1,154.71,314.33Zm-.06-1.77a5.6,5.6,0,0,1-1.29.3,2.49,2.49,0,0,0-.69.16.67.67,0,0,0-.32.25.73.73,0,0,0-.11.38.68.68,0,0,0,.24.53,1.06,1.06,0,0,0,.71.21,1.68,1.68,0,0,0,.81-.2,1.25,1.25,0,0,0,.52-.55,1.82,1.82,0,0,0,.13-.79Z" transform="translate(-83.85 -308.35)"/><path class="cls-2" d="M159.72,313.19l.78.1a2,2,0,0,1-.66,1.26,1.91,1.91,0,0,1-1.28.46,2,2,0,0,1-1.55-.63,2.59,2.59,0,0,1-.58-1.8,3.38,3.38,0,0,1,.25-1.32,1.73,1.73,0,0,1,.77-.85,2.23,2.23,0,0,1,1.11-.28,2,2,0,0,1,1.24.38,1.73,1.73,0,0,1,.62,1.09l-.77.12a1.2,1.2,0,0,0-.39-.7,1,1,0,0,0-.67-.24,1.21,1.21,0,0,0-1,.43,2,2,0,0,0-.37,1.35,2.1,2.1,0,0,0,.36,1.37,1.18,1.18,0,0,0,.94.43,1.08,1.08,0,0,0,.77-.29A1.42,1.42,0,0,0,159.72,313.19Z" transform="translate(-83.85 -308.35)"/><path class="cls-2" d="M164.37,313.4l.82.1a2,2,0,0,1-.72,1.11,2.18,2.18,0,0,1-1.34.4,2.13,2.13,0,0,1-1.62-.63,2.46,2.46,0,0,1-.6-1.77,2.55,2.55,0,0,1,.61-1.83,2.06,2.06,0,0,1,1.57-.65,2,2,0,0,1,1.53.64,2.5,2.5,0,0,1,.59,1.79v.21h-3.48a1.83,1.83,0,0,0,.43,1.18,1.31,1.31,0,0,0,1,.41,1.21,1.21,0,0,0,.74-.23A1.49,1.49,0,0,0,164.37,313.4Zm-2.6-1.28h2.61a1.63,1.63,0,0,0-.3-.88,1.2,1.2,0,0,0-1-.46,1.28,1.28,0,0,0-.92.36A1.52,1.52,0,0,0,161.77,312.12Z" transform="translate(-83.85 -308.35)"/><path class="cls-2" d="M162.74,347.87v-6.44h2.85a3.66,3.66,0,0,1,1.31.18,1.42,1.42,0,0,1,.72.61,1.82,1.82,0,0,1,.27,1,1.62,1.62,0,0,1-.45,1.16,2.21,2.21,0,0,1-1.37.59,2.5,2.5,0,0,1,.52.32,4.83,4.83,0,0,1,.7.86l1.12,1.75h-1.07l-.85-1.34c-.25-.38-.46-.68-.62-.88a1.72,1.72,0,0,0-.43-.43,1.36,1.36,0,0,0-.39-.18,2.51,2.51,0,0,0-.47,0h-1v2.86Zm.85-3.59h1.83a2.44,2.44,0,0,0,.91-.13,1,1,0,0,0,.51-.38,1.09,1.09,0,0,0,.17-.58,1,1,0,0,0-.33-.75,1.57,1.57,0,0,0-1.05-.3h-2Z" transform="translate(-83.85 -308.35)"/><path class="cls-2" d="M169.13,342.34v-.91h.79v.91Zm0,5.53v-4.66h.79v4.66Z" transform="translate(-83.85 -308.35)"/><path class="cls-2" d="M170.8,346.48l.79-.12a1.09,1.09,0,0,0,.36.72,1.26,1.26,0,0,0,.84.25,1.21,1.21,0,0,0,.81-.22.66.66,0,0,0,.27-.52.47.47,0,0,0-.24-.42,2.85,2.85,0,0,0-.8-.27,8.52,8.52,0,0,1-1.21-.38,1.25,1.25,0,0,1-.51-.45,1.11,1.11,0,0,1-.17-.62,1.16,1.16,0,0,1,.14-.58,1.1,1.1,0,0,1,.39-.44,1.56,1.56,0,0,1,.5-.23,2.15,2.15,0,0,1,.68-.1,2.63,2.63,0,0,1,1,.16,1.31,1.31,0,0,1,.61.43,1.69,1.69,0,0,1,.27.72l-.77.11a.89.89,0,0,0-.3-.57,1.16,1.16,0,0,0-.72-.2,1.32,1.32,0,0,0-.78.18.53.53,0,0,0-.23.42.4.4,0,0,0,.1.28.58.58,0,0,0,.3.21c.08,0,.31.1.7.2a10.6,10.6,0,0,1,1.17.37,1.21,1.21,0,0,1,.52.42,1.11,1.11,0,0,1,.19.67,1.35,1.35,0,0,1-.23.75,1.52,1.52,0,0,1-.67.54,2.35,2.35,0,0,1-1,.19,2.21,2.21,0,0,1-1.39-.38A1.74,1.74,0,0,1,170.8,346.48Z" transform="translate(-83.85 -308.35)"/><path class="cls-2" d="M178.82,346.37l.81.1a2,2,0,0,1-.71,1.11,2.42,2.42,0,0,1-3-.23,2.46,2.46,0,0,1-.6-1.77,2.62,2.62,0,0,1,.6-1.83,2.08,2.08,0,0,1,1.58-.65,2,2,0,0,1,1.53.64,2.54,2.54,0,0,1,.59,1.79,1.79,1.79,0,0,1,0,.21h-3.48a1.79,1.79,0,0,0,.44,1.18,1.31,1.31,0,0,0,1,.41,1.24,1.24,0,0,0,.75-.23A1.51,1.51,0,0,0,178.82,346.37Zm-2.6-1.28h2.6a1.58,1.58,0,0,0-.29-.88,1.21,1.21,0,0,0-1-.46,1.24,1.24,0,0,0-.92.37A1.4,1.4,0,0,0,176.22,345.09Z" transform="translate(-83.85 -308.35)"/><path class="cls-2" d="M144.8,377.74l.8-.07a1.76,1.76,0,0,0,.27.79,1.35,1.35,0,0,0,.65.5,2.4,2.4,0,0,0,1,.2,2.31,2.31,0,0,0,.86-.15,1.18,1.18,0,0,0,.55-.4.94.94,0,0,0,.19-.55.83.83,0,0,0-.18-.53,1.3,1.3,0,0,0-.58-.38,10.53,10.53,0,0,0-1.15-.31,6.17,6.17,0,0,1-1.24-.4,1.87,1.87,0,0,1-.69-.6,1.49,1.49,0,0,1-.22-.81,1.67,1.67,0,0,1,.27-.91,1.74,1.74,0,0,1,.81-.64,3,3,0,0,1,1.18-.22,3.16,3.16,0,0,1,1.27.23,1.83,1.83,0,0,1,.84.68,1.94,1.94,0,0,1,.31,1l-.81.06a1.37,1.37,0,0,0-.45-.92,1.72,1.72,0,0,0-1.12-.31,1.81,1.81,0,0,0-1.13.28.84.84,0,0,0-.35.69.72.72,0,0,0,.25.57,3.39,3.39,0,0,0,1.28.46,7.62,7.62,0,0,1,1.43.41,2,2,0,0,1,.83.65,1.63,1.63,0,0,1,.27.92,1.73,1.73,0,0,1-.3,1,2,2,0,0,1-.84.71,2.92,2.92,0,0,1-1.24.25,3.88,3.88,0,0,1-1.47-.25,2.13,2.13,0,0,1-.93-.77A2.2,2.2,0,0,1,144.8,377.74Z" transform="translate(-83.85 -308.35)"/><path class="cls-2" d="M154.05,379.81v-.69a1.71,1.71,0,0,1-1.48.8,2,2,0,0,1-.77-.16,1.26,1.26,0,0,1-.53-.4,1.51,1.51,0,0,1-.25-.59A4.14,4.14,0,0,1,151,378v-2.89h.79v2.59a4.93,4.93,0,0,0,.05.84.87.87,0,0,0,.32.49,1,1,0,0,0,.6.17,1.35,1.35,0,0,0,.67-.18,1,1,0,0,0,.44-.49,2.69,2.69,0,0,0,.13-.92v-2.5h.79v4.67Z" transform="translate(-83.85 -308.35)"/><path class="cls-2" d="M156.73,379.81H156v-6.44h.79v2.3a1.57,1.57,0,0,1,1.28-.63,2.08,2.08,0,0,1,.82.17,1.79,1.79,0,0,1,.63.49,2.18,2.18,0,0,1,.39.76,3.21,3.21,0,0,1,.14,1,2.69,2.69,0,0,1-.59,1.85,1.86,1.86,0,0,1-1.43.66,1.47,1.47,0,0,1-1.29-.69Zm0-2.37a2.3,2.3,0,0,0,.23,1.21,1.13,1.13,0,0,0,1,.62,1.14,1.14,0,0,0,.89-.46,2,2,0,0,0,.38-1.34,2.09,2.09,0,0,0-.36-1.35,1.11,1.11,0,0,0-.88-.43,1.13,1.13,0,0,0-.89.45A1.92,1.92,0,0,0,156.72,377.44Z" transform="translate(-83.85 -308.35)"/><path class="cls-2" d="M161,379.81v-4.67h.71v.66a1.7,1.7,0,0,1,.58-.55,1.65,1.65,0,0,1,.83-.21,1.61,1.61,0,0,1,.86.21,1.19,1.19,0,0,1,.46.6,1.68,1.68,0,0,1,1.44-.81,1.44,1.44,0,0,1,1.07.38,1.65,1.65,0,0,1,.38,1.19v3.2h-.79v-2.94a2.15,2.15,0,0,0-.08-.68.66.66,0,0,0-.28-.34.89.89,0,0,0-.47-.13,1.11,1.11,0,0,0-.82.33,1.44,1.44,0,0,0-.32,1.05v2.71h-.8v-3a1.32,1.32,0,0,0-.19-.79.72.72,0,0,0-.63-.27,1.15,1.15,0,0,0-.62.18,1,1,0,0,0-.41.51,3,3,0,0,0-.13,1v2.42Z" transform="translate(-83.85 -308.35)"/></svg>