<svg id="Capa_1" data-name="Capa 1" xmlns="http://www.w3.org/2000/svg" viewBox="0 0 95.39 76.26"><defs><style>.cls-1{fill:#b4b4b4;}</style></defs><path class="cls-1" d="M148.18,374.52v-6.44H149v2.65h3.34v-2.65h.86v6.44h-.86v-3H149v3Z" transform="translate(-83.02 -298.26)"/><path class="cls-1" d="M154.66,374.52v-6.44h2.43a6.12,6.12,0,0,1,1,.06,1.86,1.86,0,0,1,.79.3,1.59,1.59,0,0,1,.52.62,2,2,0,0,1,.19.88,2,2,0,0,1-.52,1.39,2.51,2.51,0,0,1-1.89.57h-1.65v2.62Zm.85-3.38h1.66a1.8,1.8,0,0,0,1.18-.3,1.25,1.25,0,0,0,.14-1.56,1,1,0,0,0-.54-.38,3.44,3.44,0,0,0-.79-.06h-1.65Z" transform="translate(-83.02 -298.26)"/><path class="cls-1" d="M162.87,374.52V373h-2.79v-.73l2.94-4.17h.65v4.17h.87V373h-.87v1.54Zm0-2.27v-2.9l-2,2.9Z" transform="translate(-83.02 -298.26)"/><path class="cls-1" d="M162.09,348.41V342h.85v2.65h3.35V342h.86v6.44h-.86v-3h-3.35v3Z" transform="translate(-83.02 -298.26)"/><path class="cls-1" d="M168.56,348.41V342H171a6.12,6.12,0,0,1,1,.06,2,2,0,0,1,.79.3,1.68,1.68,0,0,1,.52.62,2,2,0,0,1,.19.88,2,2,0,0,1-.52,1.39,2.51,2.51,0,0,1-1.89.57h-1.65v2.62Zm.86-3.38h1.66a1.84,1.84,0,0,0,1.18-.3,1.29,1.29,0,0,0,.14-1.56,1,1,0,0,0-.54-.38,3.44,3.44,0,0,0-.79-.06h-1.65Z" transform="translate(-83.02 -298.26)"/><path class="cls-1" d="M178.4,347.65v.76h-4.25a1.3,1.3,0,0,1,.09-.55,2.87,2.87,0,0,1,.52-.85,8.38,8.38,0,0,1,1-1,8.6,8.6,0,0,0,1.42-1.36,1.64,1.64,0,0,0,.37-1,1.07,1.07,0,0,0-.33-.79,1.25,1.25,0,0,0-.88-.32,1.21,1.21,0,0,0-.91.34,1.29,1.29,0,0,0-.35.95l-.81-.08a2,2,0,0,1,.62-1.39,2.15,2.15,0,0,1,1.47-.48,2,2,0,0,1,1.46.52,1.66,1.66,0,0,1,.55,1.27,2,2,0,0,1-.16.76,3,3,0,0,1-.53.79,12.75,12.75,0,0,1-1.22,1.13c-.47.4-.78.67-.91.81a3,3,0,0,0-.34.43Z" transform="translate(-83.02 -298.26)"/><path class="cls-1" d="M155.41,321.12v-6.45h2.41a3,3,0,0,1,1.19.2,1.57,1.57,0,0,1,.7.6,1.67,1.67,0,0,1,.25.85,1.45,1.45,0,0,1-.23.78,1.56,1.56,0,0,1-.67.59,1.69,1.69,0,0,1,.9.58,1.57,1.57,0,0,1,.31,1,1.85,1.85,0,0,1-.19.84,1.72,1.72,0,0,1-.47.6,2,2,0,0,1-.71.32,4.36,4.36,0,0,1-1,.11Zm.85-3.74h1.39a3.09,3.09,0,0,0,.81-.07,1,1,0,0,0,.5-.33,1,1,0,0,0,.16-.56,1,1,0,0,0-.15-.56.78.78,0,0,0-.44-.34,3.69,3.69,0,0,0-1-.09h-1.29Zm0,3h1.6a2.59,2.59,0,0,0,.58,0,1.4,1.4,0,0,0,.5-.17.87.87,0,0,0,.32-.36,1.08,1.08,0,0,0,.13-.54,1,1,0,0,0-.19-.63.92.92,0,0,0-.51-.37,3.21,3.21,0,0,0-.94-.11h-1.49Z" transform="translate(-83.02 -298.26)"/><path class="cls-1" d="M161.44,321.12v-6.45h2.43a6,6,0,0,1,1,.06,2,2,0,0,1,.8.31,1.53,1.53,0,0,1,.52.62,2,2,0,0,1,.19.88,2,2,0,0,1-.52,1.39,2.51,2.51,0,0,1-1.89.57H162.3v2.62Zm.86-3.38H164a1.83,1.83,0,0,0,1.18-.31,1.1,1.1,0,0,0,.34-.87,1.13,1.13,0,0,0-.2-.69,1,1,0,0,0-.54-.38,3.48,3.48,0,0,0-.8-.06H162.3Z" transform="translate(-83.02 -298.26)"/><path class="cls-1" d="M169.66,321.12v-1.55h-2.79v-.72l2.94-4.18h.64v4.18h.87v.72h-.87v1.55Zm0-2.27v-2.91l-2,2.91Z" transform="translate(-83.02 -298.26)"/><path class="cls-1" d="M121.77,304.73v-6.44h2.42a3,3,0,0,1,1.18.19,1.52,1.52,0,0,1,.7.6,1.61,1.61,0,0,1,.25.85,1.44,1.44,0,0,1-.22.78,1.58,1.58,0,0,1-.68.59,1.7,1.7,0,0,1,.9.59,1.54,1.54,0,0,1,.31,1,1.85,1.85,0,0,1-.19.84,1.61,1.61,0,0,1-.47.6,1.94,1.94,0,0,1-.71.32,4.27,4.27,0,0,1-1,.11Zm.85-3.74H124a3.23,3.23,0,0,0,.82-.07,1,1,0,0,0,.49-.32.93.93,0,0,0,.16-.56,1.05,1.05,0,0,0-.15-.57.78.78,0,0,0-.44-.33,3.69,3.69,0,0,0-1-.09h-1.29Zm0,3h1.61a3.91,3.91,0,0,0,.58,0,1.56,1.56,0,0,0,.49-.18.87.87,0,0,0,.32-.36,1,1,0,0,0,.13-.54,1.11,1.11,0,0,0-.18-.63,1,1,0,0,0-.52-.37,3.21,3.21,0,0,0-.94-.11h-1.49Z" transform="translate(-83.02 -298.26)"/><path class="cls-1" d="M127.81,304.73v-6.44h2.43a6.12,6.12,0,0,1,1,.06,1.86,1.86,0,0,1,.79.3,1.52,1.52,0,0,1,.52.62,2,2,0,0,1,.19.88,2,2,0,0,1-.52,1.39,2.51,2.51,0,0,1-1.89.57h-1.65v2.62Zm.85-3.38h1.66a1.74,1.74,0,0,0,1.18-.31,1.09,1.09,0,0,0,.35-.86,1.18,1.18,0,0,0-.21-.7,1,1,0,0,0-.54-.38,4.41,4.41,0,0,0-.79-.05h-1.65Z" transform="translate(-83.02 -298.26)"/><path class="cls-1" d="M137.65,304v.76h-4.26a1.3,1.3,0,0,1,.09-.55,2.91,2.91,0,0,1,.52-.86,7.91,7.91,0,0,1,1-1,9,9,0,0,0,1.42-1.37,1.64,1.64,0,0,0,.36-1,1.06,1.06,0,0,0-.33-.79,1.21,1.21,0,0,0-.88-.32,1.22,1.22,0,0,0-.91.34,1.28,1.28,0,0,0-.35.95l-.81-.09a2,2,0,0,1,.63-1.38,2.12,2.12,0,0,1,1.46-.48,2.05,2.05,0,0,1,1.47.51,1.71,1.71,0,0,1,.54,1.28,2,2,0,0,1-.16.76,3,3,0,0,1-.53.79,12.75,12.75,0,0,1-1.22,1.13c-.47.4-.77.67-.91.81a2.47,2.47,0,0,0-.33.43Z" transform="translate(-83.02 -298.26)"/><path class="cls-1" d="M89.74,321.12v-6.45h.86v5.69h3.17v.76Z" transform="translate(-83.02 -298.26)"/><path class="cls-1" d="M94.78,321.12v-6.45h2.43a6,6,0,0,1,1,.06,2,2,0,0,1,.8.31,1.53,1.53,0,0,1,.52.62,2,2,0,0,1,.19.88,2,2,0,0,1-.52,1.39,2.51,2.51,0,0,1-1.89.57H95.64v2.62Zm.86-3.38H97.3a1.83,1.83,0,0,0,1.18-.31,1.1,1.1,0,0,0,.34-.87,1.13,1.13,0,0,0-.2-.69,1,1,0,0,0-.54-.38,3.44,3.44,0,0,0-.79-.06H95.64Z" transform="translate(-83.02 -298.26)"/><path class="cls-1" d="M103,321.12v-1.55h-2.79v-.72l2.94-4.18h.64v4.18h.87v.72h-.87v1.55Zm0-2.27v-2.91l-2,2.91Z" transform="translate(-83.02 -298.26)"/><path class="cls-1" d="M83,348.41V342h.85v5.68H87v.76Z" transform="translate(-83.02 -298.26)"/><path class="cls-1" d="M88.06,348.41V342h2.43a6,6,0,0,1,1,.06,2.05,2.05,0,0,1,.8.3,1.65,1.65,0,0,1,.51.62,2,2,0,0,1,.2.88,2,2,0,0,1-.53,1.39,2.48,2.48,0,0,1-1.89.57H88.91v2.62Zm.85-3.38h1.67a1.79,1.79,0,0,0,1.17-.3,1.25,1.25,0,0,0,.14-1.56.93.93,0,0,0-.53-.38,3.54,3.54,0,0,0-.8-.06H88.91Z" transform="translate(-83.02 -298.26)"/><path class="cls-1" d="M97.9,347.65v.76H93.64a1.48,1.48,0,0,1,.09-.55,2.87,2.87,0,0,1,.52-.85,8.57,8.57,0,0,1,1-1,9,9,0,0,0,1.42-1.36,1.71,1.71,0,0,0,.37-1,1.08,1.08,0,0,0-.34-.79,1.24,1.24,0,0,0-.88-.32,1.22,1.22,0,0,0-.91.34,1.33,1.33,0,0,0-.35.95l-.81-.08a2,2,0,0,1,.63-1.39,2.12,2.12,0,0,1,1.46-.48,2.06,2.06,0,0,1,1.47.52,1.69,1.69,0,0,1,.54,1.27,1.85,1.85,0,0,1-.16.76,3,3,0,0,1-.52.79A14.13,14.13,0,0,1,96,346.41c-.48.4-.78.67-.92.81a3.82,3.82,0,0,0-.33.43Z" transform="translate(-83.02 -298.26)"/><path class="cls-1" d="M93,368.73a3.55,3.55,0,0,1,.86-2.52,3,3,0,0,1,2.22-.9,3.09,3.09,0,0,1,1.61.42,2.87,2.87,0,0,1,1.1,1.19,3.89,3.89,0,0,1,.37,1.73,3.82,3.82,0,0,1-.39,1.75,2.67,2.67,0,0,1-1.13,1.17,3.12,3.12,0,0,1-1.56.4,3,3,0,0,1-1.63-.44,2.79,2.79,0,0,1-1.08-1.2A3.54,3.54,0,0,1,93,368.73Zm.88,0a2.6,2.6,0,0,0,.62,1.83,2.07,2.07,0,0,0,1.58.67,2,2,0,0,0,1.58-.67,2.75,2.75,0,0,0,.62-1.92,3.43,3.43,0,0,0-.26-1.38,2.11,2.11,0,0,0-.78-.91,2.16,2.16,0,0,0-1.15-.32,2.22,2.22,0,0,0-1.56.62A2.82,2.82,0,0,0,93.9,368.74Z" transform="translate(-83.02 -298.26)"/><path class="cls-1" d="M100.32,371.86v-6.44h4.35v.76h-3.49v2h3v.76h-3v2.92Z" transform="translate(-83.02 -298.26)"/><path class="cls-1" d="M105.82,371.86v-6.44h4.35v.76h-3.5v2h3v.76h-3v2.92Z" transform="translate(-83.02 -298.26)"/></svg>